<svg width="131" height="21" viewBox="0 0 131 21" fill="none" xmlns="http://www.w3.org/2000/svg">
<path d="M1.62396 4.89906H4.74322C4.77058 5.02251 4.79111 5.18712 4.80479 5.39288C4.80479 5.6535 4.79795 5.82497 4.78427 5.90727L4.59957 7.16238C4.99632 6.46281 5.5162 5.87983 6.1592 5.41345C6.80221 4.93335 7.4931 4.6933 8.23187 4.6933L7.82144 7.40929C7.09635 7.40929 6.35074 7.64248 5.5846 8.10887C4.81847 8.56153 4.36015 9.12393 4.20966 9.79607L3.40933 15.1869H0.249023L1.62396 5.90727C1.67868 5.60549 1.67868 5.26942 1.62396 4.89906ZM18.4071 10.0636L18.2429 11.0923H11.2452C11.3136 11.6685 11.5871 12.1143 12.066 12.4298C12.5448 12.7453 13.0852 12.903 13.6872 12.903C14.6585 12.903 15.4452 12.6492 16.0471 12.1417L17.4631 13.8906C16.3002 14.8783 14.85 15.3721 13.1126 15.3721C11.9634 15.3721 10.9442 15.1046 10.0549 14.5696C9.17933 14.0209 8.61157 13.2254 8.35163 12.1828C8.17378 11.5519 8.13958 10.8386 8.24903 10.043C8.45424 8.50666 9.11093 7.23783 10.2191 6.23648C11.3272 5.22141 12.6474 4.71388 14.1797 4.71388C15.2741 4.71388 16.1908 4.98822 16.9295 5.53691C17.6683 6.08559 18.1472 6.87432 18.366 7.90311C18.5029 8.54781 18.5165 9.26796 18.4071 10.0636ZM11.6145 8.99362H15.3699C15.411 8.76043 15.3973 8.49294 15.3289 8.19117C15.2468 7.87567 15.0621 7.63562 14.7748 7.47102C14.5012 7.2927 14.1865 7.20354 13.8308 7.20354C13.3246 7.20354 12.8731 7.375 12.4764 7.71793C12.0796 8.06086 11.7923 8.48609 11.6145 8.99362ZM27.2407 12.1623L28.6566 13.8906C27.4938 14.892 26.0983 15.3927 24.4703 15.3927C23.3621 15.3927 22.3839 15.1183 21.5357 14.5696C20.6875 14.0072 20.1539 13.2116 19.935 12.1828C19.7709 11.5381 19.7435 10.8249 19.8529 10.043C20.0718 8.46551 20.7696 7.18296 21.9461 6.19533C23.1364 5.19398 24.5182 4.6933 26.0915 4.6933C27.6511 4.6933 28.8892 5.19398 29.8058 6.19533L27.8768 7.92368C27.4664 7.44359 26.8166 7.20354 25.9273 7.20354C25.1612 7.20354 24.5182 7.47788 23.9983 8.02656C23.4784 8.57525 23.1501 9.24739 23.0132 10.043C22.8901 10.8934 23.0201 11.5724 23.4032 12.08C23.7999 12.6149 24.3608 12.8824 25.0859 12.8824C25.9615 12.8824 26.6797 12.6424 27.2407 12.1623ZM32.2021 0.269531H35.3213C35.3761 0.653611 35.3897 0.98968 35.3624 1.27774L34.562 6.58627C35.5471 5.32429 36.7442 4.6933 38.1533 4.6933C39.2204 4.6933 40.0344 5.07738 40.5953 5.84554C41.1563 6.64113 41.3478 7.64934 41.1699 8.87017L40.3901 14.1787C40.3354 14.5491 40.3354 14.8851 40.3901 15.1869H37.2709C37.1888 14.8303 37.1751 14.4942 37.2298 14.1787L37.9481 9.36398C38.0438 8.733 37.9481 8.21174 37.6608 7.80023C37.3735 7.40243 36.963 7.20354 36.4295 7.20354C35.9233 7.20354 35.4376 7.42301 34.9725 7.86196C34.521 8.30091 34.2474 8.781 34.1516 9.30226L33.2897 15.1869H30.1294L32.2021 1.27774C32.2431 0.907377 32.2431 0.571308 32.2021 0.269531ZM51.8664 15.1869H48.7472C48.6651 14.8303 48.6514 14.4942 48.7061 14.1787L48.7266 13.9935C47.81 14.8714 46.7703 15.3104 45.6074 15.3104C44.5813 15.3104 43.7946 15.0154 43.2474 14.4256C42.6865 13.8495 42.4813 13.0882 42.6318 12.1417C42.7138 11.5519 42.9327 11.0306 43.2884 10.5779C43.6441 10.1116 44.0819 9.74806 44.6018 9.48744C45.1354 9.21309 45.6826 9.0142 46.2435 8.89074C46.8181 8.75357 47.3859 8.68499 47.9468 8.68499C48.5898 8.68499 49.1097 8.71242 49.5064 8.76729L49.527 8.58211C49.5954 8.14316 49.4928 7.80023 49.2191 7.55332C48.9455 7.32013 48.5625 7.20354 48.0699 7.20354C46.8934 7.20354 45.9289 7.41615 45.1764 7.84138L43.8836 6.25705C45.2106 5.21455 46.6745 4.6933 48.2752 4.6933C49.5475 4.6933 50.6009 4.96079 51.4355 5.49575C51.8733 5.81125 52.2221 6.20904 52.4821 6.68914C52.742 7.18296 52.8241 7.76594 52.7283 8.43808L51.8664 14.1787C51.8117 14.5491 51.8117 14.8851 51.8664 15.1869ZM49.2191 10.6602C48.8498 10.5505 48.4941 10.4956 48.152 10.4956C47.6321 10.4956 47.1328 10.6122 46.654 10.8454C46.1751 11.0786 45.9015 11.4216 45.8331 11.8742C45.7784 12.1623 45.8673 12.4023 46.0999 12.5944C46.3325 12.7864 46.6334 12.8824 47.0028 12.8824C47.5774 12.8824 48.0699 12.6629 48.4804 12.224C48.8908 11.7713 49.1371 11.2501 49.2191 10.6602ZM55.4727 4.89906H58.592C58.6193 5.02251 58.6399 5.18712 58.6535 5.39288C58.6535 5.6535 58.6467 5.82497 58.633 5.90727L58.4483 7.16238C58.8451 6.46281 59.365 5.87983 60.008 5.41345C60.651 4.93335 61.3419 4.6933 62.0806 4.6933L61.6702 7.40929C60.9451 7.40929 60.1995 7.64248 59.4334 8.10887C58.6672 8.56153 58.2089 9.12393 58.0584 9.79607L57.2581 15.1869H54.0978L55.4727 5.90727C55.5274 5.60549 55.5274 5.26942 55.4727 4.89906ZM61.4206 18.5202L63.2676 16.8741C63.7738 17.2993 64.5673 17.512 65.648 17.512C66.3595 17.512 66.9683 17.2993 67.4745 16.8741C67.9943 16.4489 68.309 15.8865 68.4184 15.1869L68.5826 13.9935C67.6249 14.8714 66.5236 15.3104 65.2787 15.3104C64.3894 15.3104 63.6643 15.0292 63.1034 14.4668C62.5561 13.9043 62.2141 13.1705 62.0773 12.2652C61.9679 11.6479 61.9679 10.9757 62.0773 10.2487C62.3509 8.52038 63.1444 7.16238 64.4578 6.17475C65.7849 5.18712 67.3308 4.6933 69.0957 4.6933C70.6279 4.6933 71.9345 4.96765 73.0153 5.51633L71.5788 15.1869C71.3462 16.6958 70.6279 17.8755 69.424 18.7259C68.2201 19.5901 66.8315 20.0222 65.2581 20.0222C63.6164 20.0222 62.3373 19.5215 61.4206 18.5202ZM68.911 11.8742L69.5676 7.36814C69.1983 7.2584 68.7536 7.20354 68.2337 7.20354C67.4403 7.20354 66.7767 7.50531 66.2432 8.10887C65.7096 8.71242 65.3744 9.42571 65.2376 10.2487C65.1966 10.5779 65.2103 10.9483 65.2787 11.3598C65.3471 11.7576 65.5386 12.1005 65.8533 12.3886C66.1816 12.6629 66.551 12.8001 66.9614 12.8001C67.2898 12.8001 67.6797 12.711 68.1311 12.5326C68.5963 12.3543 68.8562 12.1348 68.911 11.8742ZM84.4004 10.0636L84.2363 11.0923H77.2385C77.3069 11.6685 77.5805 12.1143 78.0593 12.4298C78.5381 12.7453 79.0785 12.903 79.6805 12.903C80.6519 12.903 81.4385 12.6492 82.0405 12.1417L83.4565 13.8906C82.2936 14.8783 80.8434 15.3721 79.1059 15.3721C77.9567 15.3721 76.9375 15.1046 76.0482 14.5696C75.1726 14.0209 74.6049 13.2254 74.3449 12.1828C74.1671 11.5519 74.1329 10.8386 74.2423 10.043C74.4475 8.50666 75.1042 7.23783 76.2124 6.23648C77.3205 5.22141 78.6407 4.71388 80.173 4.71388C81.2675 4.71388 82.1841 4.98822 82.9229 5.53691C83.6617 6.08559 84.1405 6.87432 84.3594 7.90311C84.4962 8.54781 84.5099 9.26796 84.4004 10.0636ZM77.6078 8.99362H81.3633C81.4043 8.76043 81.3906 8.49294 81.3222 8.19117C81.2401 7.87567 81.0554 7.63562 80.7681 7.47102C80.4945 7.2927 80.1799 7.20354 79.8242 7.20354C79.318 7.20354 78.8665 7.375 78.4697 7.71793C78.073 8.06086 77.7857 8.48609 77.6078 8.99362ZM88.8219 15.1869H85.6616L86.1336 11.9771H89.2939L88.8219 15.1869ZM98.9055 12.1623L100.321 13.8906C99.1586 14.892 97.7631 15.3927 96.1351 15.3927C95.0269 15.3927 94.0487 15.1183 93.2005 14.5696C92.3523 14.0072 91.8187 13.2116 91.5998 12.1828C91.4357 11.5381 91.4083 10.8249 91.5177 10.043C91.7366 8.46551 92.4344 7.18296 93.6109 6.19533C94.8012 5.19398 96.183 4.6933 97.7563 4.6933C99.3159 4.6933 100.554 5.19398 101.471 6.19533L99.5416 7.92368C99.1312 7.44359 98.4813 7.20354 97.5921 7.20354C96.826 7.20354 96.1829 7.47788 95.6631 8.02656C95.1432 8.57525 94.8148 9.24739 94.678 10.043C94.5549 10.8934 94.6849 11.5724 95.0679 12.08C95.4647 12.6149 96.0256 12.8824 96.7507 12.8824C97.6263 12.8824 98.3445 12.6424 98.9055 12.1623ZM105.098 15.1869H101.979C101.897 14.8303 101.883 14.4942 101.938 14.1787L103.313 4.89906H106.473L105.098 14.1787C105.043 14.5491 105.043 14.8851 105.098 15.1869ZM106.719 3.23243H103.559L103.928 0.783923H107.089L106.719 3.23243ZM109.395 7.40929H107.856L108.225 4.89906H109.764L110.113 2.53286H113.273L112.924 4.89906H115.818L115.448 7.40929H112.555L112.021 10.9277C111.939 11.4901 112.028 11.9565 112.288 12.3269C112.562 12.6972 112.924 12.8824 113.376 12.8824C113.827 12.8824 114.279 12.7178 114.73 12.3886L116.105 14.0758C115.148 14.9537 113.991 15.3927 112.637 15.3927C111.693 15.3927 110.886 15.1526 110.216 14.6725C109.559 14.1924 109.135 13.5134 108.943 12.6355C108.793 12.0868 108.772 11.4696 108.882 10.7837L109.395 7.40929ZM127.212 4.89906H130.249L123.374 16.8741C122.157 18.9728 120.727 20.0222 119.085 20.0222C117.854 20.0222 116.903 19.6244 116.233 18.8288L117.998 17.2445C118.176 17.4228 118.586 17.512 119.229 17.512C119.475 17.512 119.728 17.4022 119.988 17.1827C120.248 16.9633 120.563 16.5312 120.932 15.8865L121.343 15.2075L118.593 4.89906H121.589L123.395 11.5656L127.212 4.89906Z" fill="#1EE300"/>
</svg>
